<svg width="192" height="56" viewBox="0 0 192 56" fill="none" xmlns="http://www.w3.org/2000/svg">
<path d="M0.8125 55V0H11.375C14.2917 0 16.4479 0.5 17.8438 1.5C19.2396 2.47917 20.1458 3.98958 20.5625 6.03125C20.9792 8.07292 21.1875 10.6667 21.1875 13.8125C21.1875 17.2708 20.8333 20.0312 20.125 22.0938C19.4167 24.1562 18.0833 25.4688 16.125 26.0312C17.1667 26.1979 18.0104 26.6458 18.6562 27.375C19.3229 28.0833 19.8333 29.2292 20.1875 30.8125C20.5625 32.3958 20.8229 34.5417 20.9688 37.25C21.1146 39.9375 21.1875 43.3542 21.1875 47.5C21.1875 47.9167 21.1875 48.3958 21.1875 48.9375C21.1875 49.4792 21.1979 50.0417 21.2188 50.625C21.2396 51.2083 21.2708 51.7812 21.3125 52.3438C21.3542 52.8854 21.4062 53.3854 21.4688 53.8438C21.5521 54.3021 21.6458 54.6875 21.75 55H16.125C16.0208 54.7917 15.9375 54.4375 15.875 53.9375C15.8125 53.4167 15.75 52.7188 15.6875 51.8438C15.6458 50.9479 15.6146 49.8229 15.5938 48.4688C15.5729 47.1146 15.5625 45.4896 15.5625 43.5938C15.5625 41.6979 15.5625 39.4896 15.5625 36.9688C15.5625 34.6979 15.4792 32.9688 15.3125 31.7812C15.1667 30.5729 14.7604 29.7396 14.0938 29.2812C13.4271 28.8229 12.3333 28.5417 10.8125 28.4375L6.46875 28.1875V55H0.8125ZM6.4375 24.1562H10.9062C12.1562 24.1562 13.1146 23.9271 13.7812 23.4688C14.4688 22.9896 14.9375 22.0104 15.1875 20.5312C15.4375 19.0521 15.5625 16.8021 15.5625 13.7812V13.375C15.5625 10.875 15.4479 9 15.2188 7.75C14.9896 6.47917 14.5521 5.63542 13.9062 5.21875C13.2604 4.78125 12.3021 4.5625 11.0312 4.5625H6.4375V24.1562ZM67.34 55.6562C64.6942 55.6562 62.6108 55.125 61.09 54.0625C59.59 52.9792 58.5275 51.3438 57.9025 49.1562C57.2775 46.9688 56.965 44.2083 56.965 40.875V0H62.6213V40.7188C62.6213 42.8646 62.6942 44.7083 62.84 46.25C63.0067 47.7708 63.4233 48.9271 64.09 49.7188C64.7567 50.5104 65.84 50.9062 67.34 50.9062C68.8817 50.9062 69.9754 50.5104 70.6213 49.7188C71.2671 48.9271 71.6525 47.7708 71.7775 46.25C71.9233 44.7292 71.9963 42.8958 71.9963 40.75V0H77.6213V40.875C77.6213 44.2083 77.3192 46.9688 76.715 49.1562C76.1108 51.3438 75.0588 52.9792 73.5588 54.0625C72.0796 55.125 70.0067 55.6562 67.34 55.6562ZM111.149 55L119.711 0H126.149L135.555 55H130.18L128.493 44.125H118.055L116.524 55H111.149ZM118.743 39.6875H127.774L123.118 9.59375H123.024L118.743 39.6875ZM169.583 55V0H173.739L186.801 39.7188L186.239 22.4375V0H191.208V55H186.958L174.489 15.5938L174.833 29.9375V55H169.583Z" fill="#6A6A6A"/>
</svg>
